PathFileType	4	(X/Y/Z)	c:/Users/goper/Files/vsCode/490R/osim_files/A06/A06_Slow_05.trc
DataRate	CameraRate	NumFrames	NumMarkers	Units                	OrigDataRate	OrigDataStartFrame	OrigNumFrames
120.00	120.00	5	36	mm	120.0	917	1466
                Frame#	Time	LPSIS			LASIS			LTH1			LTH2			LTH3			LTH4			LLFE			LMFE			LSH1			LSH2			LSH3			LSH4			LLMAL			LMMAL			LCAL			LMTP5			LTOE			LMTP1			RPSIS			RASIS			RTH1			RTH2			RTH3			RTH4			RLFE			RMFE			RSH1			RSH2			RSH3			RSH4			RLMAL			RMMAL			RCAL			RMTP1			RTOE			RMTP5		
		X1	Y1	Z1	X2	Y2	Z2	X3	Y3	Z3	X4	Y4	Z4	X5	Y5	Z5	X6	Y6	Z6	X7	Y7	Z7	X8	Y8	Z8	X9	Y9	Z9	X10	Y10	Z10	X11	Y11	Z11	X12	Y12	Z12	X13	Y13	Z13	X14	Y14	Z14	X15	Y15	Z15	X16	Y16	Z16	X17	Y17	Z17	X18	Y18	Z18	X19	Y19	Z19	X20	Y20	Z20	X21	Y21	Z21	X22	Y22	Z22	X23	Y23	Z23	X24	Y24	Z24	X25	Y25	Z25	X26	Y26	Z26	X27	Y27	Z27	X28	Y28	Z28	X29	Y29	Z29	X30	Y30	Z30	X31	Y31	Z31	X32	Y32	Z32	X33	Y33	Z33	X34	Y34	Z34	X35	Y35	Z35	X36	Y36	Z36

917	7.63333	-1713.33801	974.46381	247.70531	-1901.73999	915.27808	317.43137	-1928.12183	571.54663	338.61740	-1949.24548	535.82428	329.13882	-1984.61694	596.13599	320.60080	-1995.69470	555.54730	314.42102	-1995.55042	477.15134	306.69739	-1982.91772	475.75653	203.19420	-1957.92371	371.74908	326.37421	-1971.92908	328.87000	327.25821	-2015.22144	386.29163	308.92996	-2021.84778	343.33862	311.13159	-2009.77039	86.15530	273.30750	-2023.47839	100.07351	186.80957	-1945.19299	75.10161	220.66772	-2128.94946	45.24100	283.38913	-2165.51807	70.57938	225.96141	-2141.65869	59.86256	189.31346	-1711.03381	986.67688	114.98396	-1889.14124	941.02661	61.19909	-1667.51697	581.30237	46.47315	-1655.85718	540.28210	49.54214	-1726.23132	557.45111	54.02889	-1705.02441	518.36987	53.95449	-1632.50305	428.00717	83.46626	-1639.03394	433.44608	172.09235	-1528.89343	311.52664	108.88439	-1503.56689	271.39551	114.69688	-1578.12122	276.49683	119.82787	-1546.04541	240.05780	120.00307	-1412.08984	148.31165	118.49555	-1428.57056	151.26367	203.79758	-1354.27832	153.11305	170.65855	-1532.35913	55.94263	194.60933	-1547.83301	58.94371	153.84381	-1517.18921	54.97245	106.93596
918	7.64167	-1721.20923	976.35370	246.31992	-1909.17297	916.78754	317.41855	-1933.61597	572.05341	337.76282	-1954.20227	536.14423	328.33249	-1990.40503	596.01093	320.79810	-2001.04480	555.29950	314.46506	-2001.11450	477.58444	305.96906	-1989.77405	476.68103	203.14761	-1962.29297	372.49146	325.66708	-1975.72034	329.47021	326.59015	-2020.09692	386.48773	308.36786	-2025.81482	343.24176	310.44293	-2010.35767	86.30872	272.89209	-2023.87622	99.91930	186.36333	-1945.33960	75.32626	220.55594	-2129.11694	45.06811	283.31360	-2165.95825	69.76144	225.62704	-2141.93677	59.33057	189.04237	-1720.07983	987.80957	114.25341	-1897.40869	942.74042	61.10198	-1679.52075	580.32202	45.71096	-1668.74414	538.99396	48.81999	-1738.80371	557.54785	53.40313	-1718.42505	518.09143	53.34417	-1647.60706	426.38599	82.70126	-1653.87085	431.77719	171.32553	-1539.99292	313.28476	107.87029	-1513.67163	274.06793	113.51889	-1588.44275	276.49991	119.02357	-1555.27112	241.47754	119.14143	-1419.11340	154.42871	116.84636	-1435.23755	156.95235	202.36948	-1361.31494	162.26567	168.71529	-1534.61035	57.05897	194.01868	-1550.44287	59.16710	153.34532	-1519.76721	56.24321	106.35122
919	7.65000	-1728.95508	978.37726	245.50801	-1916.74023	918.42346	317.28683	-1938.63965	572.26392	336.74619	-1958.64844	535.92773	327.31329	-1995.89404	595.35522	320.67581	-2005.93518	554.49463	314.14795	-2005.64868	477.49777	305.13821	-1994.31970	476.80557	202.23582	-1965.05005	373.38339	323.97937	-1978.65137	329.88400	325.68326	-2023.82776	386.21613	307.65842	-2028.99585	342.99728	309.76773	-2010.57849	86.44823	272.56296	-2024.22815	99.69648	185.81306	-1945.12866	75.78941	220.17264	-2129.29785	44.97264	283.14215	-2166.45435	68.80896	225.73109	-2142.29712	58.88953	188.76617	-1727.65125	989.68994	113.60887	-1905.11780	944.64404	60.88200	-1692.02515	579.61597	44.94023	-1682.49377	537.50311	48.10452	-1752.21997	557.65100	52.87030	-1732.70215	517.77014	52.67670	-1663.95728	424.51251	81.96204	-1670.06592	429.87982	170.62752	-1552.41504	315.28751	106.70856	-1524.77136	276.90866	112.30872	-1599.60193	276.84186	118.29785	-1565.15259	242.87048	118.22430	-1427.82495	161.39705	115.12827	-1443.47632	163.51355	200.79051	-1370.11707	172.46878	166.68349	-1537.44019	58.53960	193.44080	-1553.73767	59.53532	152.75101	-1523.07898	57.94407	105.66447
920	7.65833	-1736.94092	980.33508	245.10960	-1924.42725	920.04510	316.81256	-1943.11340	572.21643	335.58264	-1962.62280	535.61438	326.07230	-2000.97607	594.38519	320.20465	-2010.30334	553.40442	313.52954	-2009.30933	476.87912	304.27548	-1997.42236	476.41168	200.63002	-1967.88965	373.66238	322.89752	-1980.98108	330.06729	324.71567	-2026.60364	385.71393	306.89078	-2031.61279	342.68680	309.14288	-2010.92969	86.64271	272.12842	-2024.55530	99.37928	185.22743	-1945.52966	75.64336	219.97057	-2129.47021	44.89145	282.91251	-2166.78687	68.13202	225.41652	-2142.54810	58.40769	188.47107	-1735.00989	991.54425	113.49944	-1912.43884	946.85718	60.54376	-1702.73511	579.13123	43.10831	-1696.74780	535.90723	47.24506	-1766.26917	557.75372	52.26627	-1747.66333	517.28375	52.04600	-1681.33459	422.50940	81.23220	-1687.11121	427.94714	169.90517	-1565.77991	317.38416	105.60538	-1536.74329	280.04950	111.15759	-1611.52014	277.29898	117.52850	-1575.96997	244.50270	117.36395	-1437.91516	169.06133	113.30739	-1453.38477	170.80263	199.01556	-1380.44019	183.57967	164.56186	-1541.01111	60.42109	192.71768	-1557.45630	60.06019	152.10425	-1526.85803	59.99565	104.95567
921	7.66667	-1744.88989	982.30646	245.18526	-1932.49146	921.76550	316.20819	-1947.21838	572.33215	334.39096	-1966.51172	535.42438	325.00122	-2005.85449	593.49432	319.34409	-2014.38953	552.33203	312.64182	-2012.57617	476.14468	303.27621	-1999.88452	475.91733	198.97858	-1970.20764	373.87924	321.91653	-1982.87292	330.21677	323.80524	-2028.77795	385.80661	306.43796	-2033.78320	342.32397	308.44058	-2010.37146	85.96503	269.69370	-2024.71619	99.09941	184.65373	-1945.63293	75.69749	219.71844	-2129.63965	44.85413	282.67184	-2166.99829	67.55019	225.06210	-2142.08765	57.54887	188.04877	-1742.19519	993.38745	113.69826	-1919.31494	949.14484	60.14928	-1716.63232	577.63831	42.52879	-1711.90051	534.20703	46.61497	-1780.64331	557.84930	51.66994	-1763.12720	516.87378	51.36029	-1699.52417	420.45743	80.53521	-1705.02271	425.97565	169.21225	-1580.00488	319.64264	104.52192	-1549.70691	283.36548	109.99841	-1624.37378	277.94583	116.75992	-1587.88123	245.82945	116.95090	-1448.96301	177.90283	110.94019	-1464.85425	178.80734	197.18245	-1393.25452	195.63481	162.29369	-1544.81384	62.63371	192.04175	-1561.90369	60.80222	151.38429	-1531.14832	62.50146	104.27792
